<svg width="22" height="22" viewBox="0 0 22 22" fill="none" xmlns="http://www.w3.org/2000/svg">
<path d="M15.727 17.387C15.589 17.344 15.449 17.301 15.307 17.256C15.378 16.95 15.446 16.615 15.506 16.262C15.799 16.062 16.092 15.855 16.38 15.642C16.395 15.826 16.405 16.002 16.414 16.177C16.189 16.61 15.961 17.019 15.727 17.387ZM7.874 3.646C8.041 3.517 8.208 3.397 8.371 3.282C8.378 3.197 8.386 3.117 8.394 3.039C8.557 2.976 8.718 2.914 8.877 2.857C9.068 3.109 9.288 3.423 9.527 3.787C9.451 3.866 9.375 3.947 9.298 4.03C9.04 4.118 8.778 4.21 8.517 4.303C8.547 4.02 8.58 3.757 8.617 3.52C8.516 3.682 8.414 3.854 8.31 4.034C8.131 4.04 7.952 4.047 7.775 4.054C7.807 3.911 7.84 3.775 7.874 3.646ZM21.281 10.549C21.025 10.86 20.726 11.189 20.39 11.532C20.384 11.738 20.376 11.946 20.369 12.151C20.242 12.33 20.111 12.508 19.973 12.69C19.842 12.153 19.694 11.595 19.522 11.026C19.331 10.723 19.126 10.414 18.909 10.1C18.403 9.974 17.854 9.846 17.276 9.714C17.106 9.55 16.93 9.387 16.752 9.222C16.666 9.274 16.582 9.325 16.496 9.376C16.631 9.702 16.763 10.028 16.888 10.355C17.083 10.249 17.277 10.142 17.463 10.038C17.717 10.256 17.962 10.471 18.197 10.681C17.501 11.168 16.733 11.68 15.924 12.197C15.539 11.352 15.116 10.471 14.671 9.596C14.579 9.61 14.487 9.625 14.396 9.64C14.853 10.682 15.293 11.733 15.675 12.73C16.097 12.517 16.507 12.304 16.904 12.095C16.769 12.566 16.623 13.035 16.468 13.494C16.048 13.888 15.614 14.276 15.177 14.655C15.198 15.188 15.209 15.698 15.207 16.169C14.964 16.336 14.722 16.498 14.478 16.655C13.98 17.323 13.488 17.901 13.021 18.348C12.629 18.399 12.24 18.446 11.853 18.491C11.562 18.035 11.216 17.412 10.84 16.672C10.929 16.333 11.025 15.972 11.12 15.588C10.883 14.922 10.632 14.194 10.378 13.439C9.527 13.491 8.685 13.536 7.862 13.573C7.386 13.125 6.916 12.668 6.458 12.209C6.518 11.473 6.593 10.721 6.68 9.973C7.127 9.415 7.589 8.857 8.053 8.309C8.929 8.147 9.824 7.99 10.713 7.841C10.769 8.07 10.824 8.301 10.88 8.533C11.245 8.766 11.61 9.004 11.978 9.242C12.119 9.047 12.255 8.853 12.392 8.663C12.949 8.807 13.499 8.953 14.041 9.1C14.179 9.016 14.315 8.933 14.452 8.851C14.508 8.647 14.559 8.446 14.612 8.247C14.246 8.179 13.873 8.109 13.497 8.041C13.37 7.834 13.242 7.627 13.115 7.423C13.024 7.38 12.934 7.336 12.846 7.291C12.776 7.544 12.704 7.802 12.63 8.063C12.458 7.853 12.287 7.646 12.115 7.441C12.124 7.271 12.133 7.103 12.138 6.937C11.913 6.768 11.689 6.603 11.468 6.441C11.334 6.379 11.202 6.318 11.071 6.258C11.084 6.417 11.093 6.579 11.107 6.743C11.384 6.919 11.665 7.098 11.946 7.281C11.804 7.437 11.661 7.597 11.515 7.76C11.31 7.499 11.107 7.243 10.908 6.993C10.763 6.836 10.621 6.681 10.478 6.529C10.146 6.682 9.811 6.841 9.476 7.001C9.236 7.347 8.993 7.703 8.751 8.066C8.397 8.016 8.047 7.968 7.7 7.921C7.695 7.49 7.693 7.069 7.697 6.666C8.134 6.684 8.576 6.704 9.024 6.728C8.89 6.516 8.758 6.308 8.628 6.106C8.552 5.941 8.477 5.779 8.403 5.623C8.737 5.521 9.072 5.42 9.405 5.324C9.595 5.111 9.781 4.906 9.966 4.71C10.112 4.701 10.259 4.691 10.404 4.682C10.376 4.573 10.347 4.466 10.319 4.363C10.415 4.265 10.507 4.173 10.599 4.08C10.669 4.232 10.74 4.391 10.811 4.556C11.217 4.564 11.623 4.576 12.027 4.589C12.131 4.359 12.228 4.141 12.323 3.937C12.476 3.977 12.631 4.018 12.785 4.058C12.721 3.914 12.657 3.777 12.594 3.646C12.819 3.6 13.036 3.556 13.254 3.514C13.175 3.455 13.096 3.399 13.018 3.344C12.825 3.375 12.626 3.409 12.426 3.444C12.342 3.328 12.26 3.218 12.178 3.114C12.167 3.114 12.157 3.113 12.147 3.113C12.151 3.105 12.155 3.098 12.16 3.09C12.127 3.047 12.092 3.005 12.057 2.966C12.132 2.935 12.207 2.904 12.281 2.876C12.34 2.776 12.387 2.702 12.44 2.621C12.368 2.615 12.294 2.608 12.221 2.602C12.117 2.665 12.01 2.737 11.901 2.812C11.813 2.926 11.721 3.055 11.625 3.193C11.745 3.272 11.866 3.352 11.987 3.436C11.887 3.64 11.783 3.866 11.671 4.108C11.49 4.16 11.308 4.212 11.123 4.266C11.019 4.015 10.916 3.782 10.817 3.567C10.61 3.648 10.398 3.731 10.185 3.819C10.086 3.775 9.989 3.734 9.892 3.692C9.914 3.479 9.938 3.282 9.962 3.107C10.14 3.025 10.314 2.95 10.484 2.879C10.63 2.692 10.77 2.538 10.9 2.419C11.23 2.352 11.547 2.297 11.849 2.252C12.617 2.287 13.417 2.343 14.228 2.411C15.353 2.373 16.715 2.324 17.316 2.295C15.496 0.862 13.202 0 10.705 0C8.157 0 5.82 0.894 3.982 2.38C4.105 2.397 4.227 2.415 4.351 2.434C4.424 2.617 4.507 2.815 4.605 3.037C4.637 3.15 4.672 3.271 4.71 3.396C4.516 3.581 4.325 3.781 4.139 3.994C4.1 4.099 4.062 4.205 4.025 4.315C3.883 4.395 3.745 4.477 3.607 4.559C3.517 4.858 3.434 5.174 3.357 5.502C3.188 5.478 3.021 5.455 2.86 5.433C2.747 4.779 2.682 4.217 2.63 3.691C2.133 4.262 1.69 4.882 1.321 5.551C1.376 5.505 1.427 5.46 1.483 5.415C1.626 6.138 1.798 6.931 2.032 7.794C1.562 8.097 1.14 8.398 0.776 8.688C0.511 8.933 0.283 9.174 0.086 9.405C0.035 9.831 0 10.264 0 10.704C0 11.617 0.127 12.499 0.341 13.346C0.531 13.415 0.738 13.483 0.968 13.55C1.318 13.95 1.717 14.356 2.156 14.757C2.252 15.044 2.354 15.326 2.461 15.604C3.031 15.958 3.654 16.302 4.303 16.625C4.107 17.232 3.956 17.762 3.843 18.219C3.59 18.227 3.345 18.233 3.103 18.237C5.041 20.196 7.731 21.411 10.706 21.411C16.518 21.411 21.238 16.774 21.394 11C21.353 10.849 21.323 10.702 21.281 10.549Z" fill="white"/>
</svg>
